<svg display="none" xmlns="http://www.w3.org/2000/svg">
    <symbol id="arrow" viewBox="0 0 24 24">
        <g>
            <path d="M12 4L10.59 5.41L16.17 11H4V13H16.17L10.59 18.59L12 20L20 12L12 4Z"/>
        </g>
    </symbol>
    <symbol id="logo" viewBox="0 0 48 48">
        <g clip-path="url(#clip0_1_283)">
            <circle cx="16" cy="24" r="16" fill="#316099"/>
            <circle cx="32" cy="24" r="15" fill="white" stroke="#316099" stroke-width="2"/>
            <path d="M39.3 30L34.38 16H30.96L26.06 30H29.04L29.88 27.48H35.46L36.3 30H39.3ZM32.68 19.18L34.6 24.9H30.76L32.68 19.18Z" fill="#316099"/>
        </g>
    </symbol>
    <symbol id="logo-light" viewBox="0 0 49 32">
        <ellipse cx="16.2564" cy="16" rx="15.8787" ry="16" fill="#98C3E8"/>
        <path d="M47.0138 16C47.0138 24.2915 40.3452 31 32.1351 31C23.9249 31 17.2563 24.2915 17.2563 16C17.2563 7.70854 23.9249 1 32.1351 1C40.3452 1 47.0138 7.70854 47.0138 16Z" fill="white" stroke="#316099" stroke-width="2"/>
        <path d="M38.4882 23L33.5682 9H30.1482L25.2482 23H28.2282L29.0682 20.48H34.6482L35.4882 23H38.4882ZM31.8682 12.18L33.7882 17.9H29.9482L31.8682 12.18Z" fill="#316099"/>
    </symbol>
</svg>